HIERARCHY
ROOT Hips
{
	OFFSET 0.00000 0.00000 0.00000
	CHANNELS 6 Xposition Yposition Zposition Zrotation Yrotation Xrotation 
	JOINT LHipJoint
	{
		OFFSET 0 0 0
		CHANNELS 3 Zrotation Yrotation Xrotation
		JOINT LeftHip
		{
			OFFSET 1.28858 -1.83292 1.03970
			CHANNELS 3 Zrotation Yrotation Xrotation
			JOINT LeftKnee
			{
				OFFSET 2.47846 -6.80952 0.00000
				CHANNELS 3 Zrotation Yrotation Xrotation
				JOINT LeftAnkle
				{
					OFFSET 2.75274 -7.56311 0.00000
					CHANNELS 3 Zrotation Yrotation Xrotation
					JOINT LeftToe
					{
						OFFSET 0.12848 -0.35301 1.68223
						CHANNELS 3 Zrotation Yrotation Xrotation
						End Site
						{
							OFFSET 0.00000 -0.00000 0.87311
						}
					}
				}
			}
		}
	}
	JOINT RHipJoint
	{
		OFFSET 0 0 0
		CHANNELS 3 Zrotation Yrotation Xrotation
		JOINT RightHip
		{
			OFFSET -1.31183 -1.83292 1.03970
			CHANNELS 3 Zrotation Yrotation Xrotation
			JOINT RightKnee
			{
				OFFSET -2.44740 -6.72417 0.00000
				CHANNELS 3 Zrotation Yrotation Xrotation
				JOINT RightAnkle
				{
					OFFSET -2.67343 -7.34519 0.00000
					CHANNELS 3 Zrotation Yrotation Xrotation
					JOINT RightToe
					{
						OFFSET -0.16914 -0.46471 1.77626
						CHANNELS 3 Zrotation Yrotation Xrotation
						End Site
						{
							OFFSET -0.00000 -0.00000 0.92777
						}
					}
				}
			}
		}
	}
	JOINT lowerback
	{
		OFFSET 0 0 0
		CHANNELS 3 Zrotation Yrotation Xrotation
		JOINT Chest
		{
			OFFSET 0.01249 2.14252 0.03842
			CHANNELS 3 Zrotation Yrotation Xrotation
			JOINT Chest2
			{
				OFFSET -0.02957 2.14199 -0.03751
				CHANNELS 3 Zrotation Yrotation Xrotation
				JOINT lowerneck
				{
					OFFSET 0 0 0
					CHANNELS 3 Zrotation Yrotation Xrotation
					JOINT Neck
					{
						OFFSET -0.01678 1.65709 -0.05476
						CHANNELS 3 Zrotation Yrotation Xrotation
						JOINT Head
						{
							OFFSET 0.07912 1.58331 -0.11843
							CHANNELS 3 Zrotation Yrotation Xrotation
							End Site
							{
								OFFSET 0.03298 1.73940 -0.04271
							}
						}
					}
				}
				JOINT LeftCollar
				{
					OFFSET 0 0 0
					CHANNELS 3 Zrotation Yrotation Xrotation
					JOINT LeftShoulder
					{
						OFFSET 3.39556 1.16496 0.08673
CHANNELS 3 Zrotation Xrotation Yrotation
						JOINT LeftElbow
						{
OFFSET 0 -5.239100 -0.000000
CHANNELS 3 Zrotation Xrotation Yrotation
							JOINT LeftWrist
							{
OFFSET 0 -3.314670 0.000000
CHANNELS 3 Zrotation Xrotation Yrotation
								JOINT lhand
								{
									OFFSET 0 0 0
CHANNELS 3 Zrotation Xrotation Yrotation
									JOINT LFingers
									{
OFFSET 0 -0.965900 0.000000
CHANNELS 3 Zrotation Xrotation Yrotation
										End Site
										{
OFFSET 0 -0.778730 0.000000
										}
									}
								}
								JOINT LThumb
								{
OFFSET 0 0.000000 0.000000
CHANNELS 3 Zrotation Xrotation Yrotation
									End Site
									{
OFFSET 0 -0.790620 0.790620
									}
								}
							}
						}
					}
				}
				JOINT RightCollar
				{
					OFFSET 0 0 0
					CHANNELS 3 Zrotation Yrotation Xrotation
					JOINT RightShoulder
					{
						OFFSET -3.27193 1.31331 0.33940
CHANNELS 3 Zrotation Xrotation Yrotation
						JOINT RightElbow
						{
OFFSET 0 -5.302520 0.000000
CHANNELS 3 Zrotation Xrotation Yrotation
							JOINT RightWrist
							{
OFFSET 0 -3.678750 0.000000
CHANNELS 3 Zrotation Xrotation Yrotation
								JOINT rhand
								{
									OFFSET 0 0 0
CHANNELS 3 Zrotation Xrotation Yrotation
									JOINT RFingers
									{
OFFSET 0 -0.594810 0.000000
CHANNELS 3 Zrotation Xrotation Yrotation
										End Site
										{
OFFSET 0 -0.479550 0.000000
										}
									}
								}
								JOINT RThumb
								{
OFFSET 0 0.000000 0.000000
CHANNELS 3 Zrotation Xrotation Yrotation
									End Site
									{
OFFSET 0 -0.486870 0.486870
									}
								}
							}
						}
					}
				}
			}
		}
	}
}
MOTION
Frames: 4
Frame Time: 0.008333333333333333
5.221610 9.547646 15.187363 -2.145742 9.385174 24.036817 0.000000 0.000000 0.000000 -3.197562 21.382030 -123.687158 7.949181 16.081318 52.378721 40.887105 16.607432 -170.974605 3.902696 12.029725 35.837240 0.000000 0.000000 0.000000 -1.584274 -19.905388 -113.234074 -8.484030 -16.463197 54.286744 -37.839205 -2.859849 152.926379 -0.373855 3.925389 -10.867097 -2.217580 -0.650914 53.009130 -2.232998 -1.637350 17.860568 -0.782229 -0.614670 -0.962032 -2.771495 -1.906224 3.820354 2.603605 -2.545839 -18.264945 1.450121 -1.273870 -6.078274 0.000000 0.000000 0.000000 156.735385 -81.312226 90.795919 24.447741 -35.617426 7.973023 52.294451 -34.468951 25.562358 0.000000 0.000000 0.000000 -7.125000 0.000000 0.000000 12.930559 -7.208655 14.817185 0.000000 0.000000 0.000000 -144.087409 -77.220492 -82.399470 -18.428733 -28.690858 -4.759532 4.696790 -13.004736 41.196286 0.000000 0.000000 0.000000 7.125000 0.000000 0.000000 51.069338 63.867484 -26.669922
5.259119 9.978564 15.209597 -2.020699 8.774400 24.685554 0.000000 0.000000 0.000000 -3.775539 21.625988 -122.048838 8.602183 16.543670 54.702113 40.586522 14.586360 -168.485516 4.153602 12.361608 37.024142 0.000000 0.000000 0.000000 -2.040504 -19.015867 -110.811214 -9.422411 -17.070141 57.537103 -38.201446 -3.257907 155.467997 -0.507437 4.564756 -12.671531 -2.738740 -0.507551 50.716703 -2.362919 -1.712978 17.333853 -0.631453 -0.687262 -1.304976 -3.345719 -1.333674 3.155862 1.676526 -1.937789 -20.794079 1.233783 -0.825472 -6.796630 0.000000 0.000000 0.000000 156.678194 -79.550709 85.603564 18.317676 -28.534457 4.714385 43.305473 -29.487335 22.932649 0.000000 0.000000 0.000000 -7.125000 0.000000 0.000000 8.545878 0.032241 8.691071 0.000000 0.000000 0.000000 -144.700305 -74.211486 -71.218833 -14.336770 -23.210928 -2.961568 14.864111 -28.051600 45.250774 0.000000 0.000000 0.000000 7.125000 0.000000 0.000000 66.147960 63.316309 -36.904092
5.301777 10.425203 15.242875 -2.039102 8.108451 25.483697 0.000000 0.000000 0.000000 -4.425034 22.048189 -120.195029 9.409326 17.062623 57.493202 40.344133 13.365964 -166.052213 4.319387 12.573738 37.792990 0.000000 0.000000 0.000000 -1.930478 -18.050957 -108.502672 -10.471827 -17.664761 61.051413 -38.469190 -3.867431 157.544929 -0.632040 5.085884 -14.153941 -3.167841 -0.468577 47.436560 -2.624317 -1.798339 17.378753 -0.571696 -0.769287 -1.490779 -3.061689 -0.571204 2.695911 0.466873 -1.060006 -24.032212 0.750938 -0.257622 -7.818180 0.000000 0.000000 0.000000 153.405136 -77.760438 75.227222 13.482556 -21.977781 2.639279 27.629610 -19.205946 17.335804 0.000000 0.000000 0.000000 -7.125000 0.000000 0.000000 -0.254452 10.478818 -0.094717 0.000000 0.000000 0.000000 -136.730542 -70.631016 -44.549401 -14.150651 -22.948839 -2.887089 16.606403 -24.002621 42.579662 0.000000 0.000000 0.000000 7.125000 0.000000 0.000000 63.366266 61.425797 -32.082659
5.357011 10.888567 15.298596 -2.394276 7.663295 26.299296 0.000000 0.000000 0.000000 -4.922126 22.521306 -118.088174 10.350697 17.601827 60.653367 40.170108 12.932393 -163.923773 4.246437 12.481208 37.456492 0.000000 0.000000 0.000000 -1.138644 -17.185186 -105.867405 -11.680175 -18.251322 64.970592 -38.654912 -5.077966 159.155909 -0.680846 5.275773 -14.696795 -3.193002 -0.793314 44.605755 -3.047277 -2.167034 16.904059 -0.816484 -0.943904 -1.804981 -2.204180 0.409740 2.164821 -0.509053 0.239868 -27.142806 0.177389 0.443658 -8.812354 0.000000 0.000000 0.000000 140.585352 -75.295240 50.043278 11.479617 -19.019534 1.929388 7.628427 -11.504217 10.286355 0.000000 0.000000 0.000000 -7.125000 0.000000 0.000000 -13.718904 19.720783 -8.498179 0.000000 0.000000 0.000000 -131.283050 -67.655374 -27.427022 -15.383369 -24.676879 -3.384792 22.778688 4.334217 32.830446 0.000000 0.000000 0.000000 7.125000 0.000000 0.000000 56.293288 54.103747 -16.557504
